# xmcd
#
# Track frame offsets:
#	150
#	17377
#	38215
#	81592
#
# Disc length: 1665 seconds
# Revision: 0
# Processed by: cddbd v1.5.2PL0 Copyright (c) Steve Scherf et al.
# Submitted via: dBpowerAMP V12.0
#
DISCID=26067f04
DTITLE=Joey McIntyre - Stay The Same
DYEAR=1999
DGENRE=Pop
TTITLE0=Stay The Same [Single Version]
TTITLE1=Stay The Same [Tony Moran Radio Remix]
TTITLE2=Stay The Same [Tony Moran Extended Club Mix]
TTITLE3=Stay The Same [Tony Moran Remix Instrumental]
EXTD=
EXTT0=
EXTT1=
EXTT2=
EXTT3=
PLAYORDER=
